<?xml version="1.0" encoding="UTF-8"?>
<svg xmlns="http://www.w3.org/2000/svg" xmlns:xlink="http://www.w3.org/1999/xlink" width="100px" height="100px" viewBox="0 0 100 100" version="1.1">
<g id="surface1">
<path style=" stroke:none;fill-rule:nonzero;fill:rgb(0%,0%,0%);fill-opacity:1;" d="M 6.257812 60.5625 C 3.332031 60.175781 0.925781 58.0625 0.171875 55.207031 C 0 54.601562 0 54.589844 0 52.222656 L 0 49.847656 L 0.171875 49.554688 C 0.390625 49.164062 0.757812 48.878906 1.1875 48.757812 C 1.621094 48.636719 2.082031 48.695312 2.472656 48.917969 C 2.804688 49.097656 2.984375 49.292969 3.195312 49.691406 C 3.304688 49.886719 3.316406 50.121094 3.347656 52.128906 C 3.378906 54.3125 3.386719 54.355469 3.542969 54.761719 C 3.734375 55.320312 4.0625 55.820312 4.496094 56.222656 C 5.242188 56.996094 6.300781 57.394531 7.375 57.304688 C 8.066406 57.308594 8.738281 57.097656 9.300781 56.695312 C 10.03125 56.21875 10.582031 55.507812 10.855469 54.679688 L 11.003906 54.222656 L 11.003906 50.535156 C 11.003906 48.503906 10.992188 45.449219 10.976562 43.75 C 10.945312 40.734375 10.949219 40.648438 11.074219 40.375 C 11.375 39.785156 11.96875 39.40625 12.628906 39.375 C 13.230469 39.394531 13.777344 39.71875 14.082031 40.238281 C 14.25 40.519531 14.25 40.558594 14.292969 41.839844 C 14.382812 44.699219 14.429688 53.832031 14.355469 54.363281 C 13.953125 57.417969 11.652344 59.875 8.628906 60.476562 C 8.070312 60.597656 6.816406 60.640625 6.261719 60.5625 Z M 39.699219 60.5625 C 36.285156 60.101562 33.605469 57.480469 33.167969 54.179688 C 33.113281 53.371094 33.097656 52.5625 33.117188 51.753906 L 33.132812 49.847656 L 33.308594 49.554688 C 33.527344 49.164062 33.894531 48.878906 34.324219 48.757812 C 34.757812 48.636719 35.21875 48.695312 35.609375 48.917969 C 35.9375 49.097656 36.121094 49.292969 36.332031 49.691406 C 36.4375 49.886719 36.449219 50.121094 36.484375 52.003906 C 36.515625 53.9375 36.527344 54.125 36.648438 54.457031 C 36.898438 55.132812 37.191406 55.585938 37.667969 56.066406 C 38.5 56.898438 39.304688 57.253906 40.457031 57.304688 C 41.777344 57.359375 42.75 56.992188 43.640625 56.105469 C 44.117188 55.667969 44.476562 55.117188 44.683594 54.503906 C 44.824219 54.105469 44.824219 54.054688 44.859375 50.785156 C 44.890625 47.082031 44.878906 47.214844 45.347656 46.730469 C 45.960938 46.066406 46.992188 46.011719 47.671875 46.609375 C 48.074219 46.953125 48.234375 47.351562 48.234375 48.015625 L 48.234375 48.5625 L 52.003906 48.5625 C 56.203125 48.5625 56.109375 48.554688 56.613281 48.988281 C 57.304688 49.578125 57.363281 50.675781 56.730469 51.304688 C 56.230469 51.808594 56.492188 51.777344 52.140625 51.816406 L 48.265625 51.847656 L 48.226562 53.128906 C 48.175781 54.761719 48.035156 55.363281 47.441406 56.535156 C 47.113281 57.1875 46.675781 57.785156 46.148438 58.300781 C 45.109375 59.386719 43.765625 60.136719 42.296875 60.445312 C 41.4375 60.597656 40.566406 60.636719 39.699219 60.5625 Z M 63.175781 60.574219 C 62.710938 60.425781 62.320312 60.101562 62.089844 59.671875 L 61.957031 59.414062 L 61.957031 54.597656 C 61.957031 50.015625 61.960938 49.773438 62.074219 49.566406 C 62.222656 49.234375 62.476562 48.960938 62.796875 48.792969 C 63.183594 48.570312 63.648438 48.511719 64.082031 48.628906 C 64.511719 48.75 64.878906 49.039062 65.101562 49.429688 L 65.265625 49.722656 L 65.289062 54.472656 C 65.304688 59.679688 65.3125 59.546875 64.933594 60.011719 C 64.558594 60.464844 63.691406 60.746094 63.175781 60.574219 Z M 70.546875 60.550781 C 69.960938 60.328125 69.574219 59.941406 69.433594 59.429688 C 69.378906 59.234375 69.367188 57.9375 69.378906 54.441406 L 69.394531 49.722656 L 69.566406 49.429688 C 69.785156 49.039062 70.152344 48.75 70.585938 48.628906 C 71.019531 48.511719 71.480469 48.570312 71.871094 48.792969 C 72.195312 48.972656 72.378906 49.167969 72.589844 49.566406 C 72.703125 49.773438 72.707031 50.015625 72.707031 54.597656 L 72.707031 59.414062 L 72.570312 59.671875 C 72.390625 60.003906 72.113281 60.277344 71.777344 60.453125 C 71.390625 60.621094 70.957031 60.65625 70.546875 60.550781 Z M 84.808594 60.566406 C 84.066406 60.417969 83.433594 59.933594 83.101562 59.253906 C 82.765625 58.574219 82.765625 57.777344 83.101562 57.101562 C 83.222656 56.855469 84.648438 55.382812 89.675781 50.335938 C 95.777344 44.203125 96.113281 43.878906 96.527344 43.679688 C 96.929688 43.488281 97.011719 43.472656 97.5625 43.472656 C 98.109375 43.472656 98.191406 43.488281 98.574219 43.675781 C 99.175781 43.953125 99.632812 44.460938 99.847656 45.085938 C 100.058594 45.710938 100.007812 46.398438 99.703125 46.984375 C 99.574219 47.226562 98.011719 48.828125 93.316406 53.546875 C 91.15625 55.730469 88.976562 57.902344 86.785156 60.054688 C 86.230469 60.503906 85.511719 60.691406 84.808594 60.566406 Z M 94.476562 60.503906 C 94.367188 60.429688 94.300781 60.304688 94.308594 60.171875 C 94.308594 59.992188 94.5625 59.710938 96.757812 57.484375 C 98.109375 56.113281 99.277344 54.964844 99.367188 54.933594 C 99.589844 54.851562 99.851562 54.976562 99.933594 55.207031 C 99.976562 55.332031 100 56.277344 100 57.851562 C 100 60.175781 99.996094 60.3125 99.878906 60.449219 L 99.761719 60.601562 L 97.203125 60.617188 C 94.683594 60.632812 94.640625 60.632812 94.480469 60.503906 Z M 22.507812 60.296875 C 21.972656 60.058594 21.621094 59.53125 21.605469 58.945312 C 21.59375 58.359375 21.917969 57.816406 22.441406 57.554688 C 23.039062 57.257812 23.753906 57.363281 24.246094 57.8125 C 24.578125 58.113281 24.726562 58.445312 24.726562 58.914062 C 24.746094 59.351562 24.550781 59.773438 24.207031 60.046875 C 23.746094 60.46875 23.074219 60.566406 22.507812 60.296875 Z M 51.316406 57.058594 C 50.871094 56.929688 50.523438 56.582031 50.386719 56.140625 C 50.300781 55.804688 50.351562 55.449219 50.535156 55.152344 C 50.714844 54.855469 51.011719 54.648438 51.351562 54.574219 C 51.875 54.460938 56.128906 54.480469 56.519531 54.597656 C 57.074219 54.738281 57.457031 55.246094 57.449219 55.816406 C 57.449219 56.191406 57.347656 56.441406 57.070312 56.714844 C 56.695312 57.097656 56.683594 57.097656 54.015625 57.109375 C 53.117188 57.128906 52.214844 57.109375 51.316406 57.058594 Z M 20.382812 56.480469 C 19.9375 56.285156 19.640625 55.851562 19.621094 55.363281 C 19.601562 54.875 19.863281 54.417969 20.292969 54.1875 L 20.570312 54.035156 L 23.0625 54.015625 C 25.832031 53.996094 25.972656 54.011719 26.332031 54.394531 C 26.609375 54.6875 26.726562 54.953125 26.726562 55.300781 C 26.722656 55.71875 26.515625 56.105469 26.175781 56.347656 L 25.902344 56.539062 L 23.238281 56.550781 C 21.113281 56.5625 20.527344 56.550781 20.382812 56.480469 Z M 18.382812 51.699219 C 18.023438 51.542969 17.726562 51.265625 17.550781 50.917969 L 17.382812 50.597656 L 17.339844 48.035156 C 17.316406 46.367188 17.296875 44.699219 17.292969 43.035156 C 17.289062 40.691406 17.292969 40.589844 17.417969 40.332031 C 17.726562 39.769531 18.300781 39.410156 18.941406 39.375 C 19.566406 39.375 20.226562 39.808594 20.472656 40.378906 C 20.609375 40.699219 20.613281 40.773438 20.667969 44.496094 L 20.722656 48.425781 L 20.726562 48.566406 L 23.867188 48.566406 C 25.730469 48.566406 27.101562 48.589844 27.230469 48.625 C 27.855469 48.800781 28.359375 49.375 28.445312 50.007812 C 28.515625 50.695312 28.148438 51.351562 27.527344 51.652344 L 27.203125 51.816406 L 22.917969 51.816406 C 18.902344 51.816406 18.617188 51.804688 18.378906 51.699219 Z M 40.171875 51.660156 C 39.367188 51.390625 38.925781 50.53125 39.175781 49.722656 C 39.269531 49.367188 39.800781 48.867188 40.1875 48.753906 C 40.640625 48.632812 41.125 48.691406 41.535156 48.921875 C 42.160156 49.304688 42.417969 50.175781 42.105469 50.835938 C 41.90625 51.230469 41.5625 51.527344 41.144531 51.664062 C 40.832031 51.773438 40.484375 51.773438 40.171875 51.660156 Z M 82.980469 49.015625 C 82.894531 48.925781 82.878906 48.558594 82.859375 46.292969 L 82.835938 43.679688 L 82.988281 43.554688 C 83.125 43.445312 83.261719 43.4375 85.683594 43.4375 C 88.015625 43.4375 88.242188 43.445312 88.363281 43.546875 C 88.441406 43.625 88.5 43.722656 88.527344 43.828125 C 88.570312 43.984375 88.441406 44.132812 86.945312 45.671875 C 86.050781 46.589844 84.914062 47.746094 84.417969 48.238281 C 83.601562 49.042969 83.496094 49.128906 83.296875 49.128906 C 83.167969 49.128906 83.039062 49.082031 82.980469 49.015625 Z M 70.550781 46.535156 C 70.113281 46.394531 69.757812 46.0625 69.589844 45.636719 C 69.421875 45.207031 69.457031 44.726562 69.683594 44.324219 C 70.101562 43.597656 71.046875 43.324219 71.804688 43.722656 C 72.132812 43.941406 72.386719 44.25 72.542969 44.613281 C 72.761719 45.304688 72.457031 46.058594 71.8125 46.394531 C 71.425781 46.601562 70.972656 46.652344 70.550781 46.535156 Z M 70.550781 46.535156 "/>
</g>
</svg>
