<?xml version="1.0" encoding="UTF-8"?>
<svg xmlns="http://www.w3.org/2000/svg" xmlns:xlink="http://www.w3.org/1999/xlink" width="32px" height="33px" viewBox="0 0 32 33" version="1.1">
<g id="surface1">
<path style=" stroke:none;fill-rule:nonzero;fill:rgb(12.156863%,60.784314%,85.490196%);fill-opacity:1;" d="M 15.980469 0.179688 C 10.351562 0.179688 5.410156 3.222656 2.609375 7.792969 C 3.570312 8.507812 4.742188 8.933594 6.015625 8.933594 L 17.394531 8.933594 C 23.394531 8.933594 28.679688 12.085938 31.777344 16.871094 C 31.78125 16.742188 31.789062 16.613281 31.789062 16.480469 C 31.789062 7.480469 24.710938 0.179688 15.980469 0.179688 Z M 15.980469 0.179688 "/>
<path style=" stroke:none;fill-rule:nonzero;fill:rgb(11.372549%,56.470588%,79.607843%);fill-opacity:1;" d="M 31.789062 16.480469 C 31.789062 16.042969 31.765625 15.613281 31.734375 15.183594 C 28.628906 10.226562 23.367188 7.746094 17.394531 7.746094 L 6.015625 7.746094 C 4.90625 7.746094 3.871094 7.566406 2.988281 7.203125 C 1.367188 9.617188 0.355469 12.503906 0.199219 15.621094 C 3.367188 19.652344 8.203125 22.230469 13.628906 22.230469 L 13.890625 22.230469 C 17.0625 22.230469 18.492188 23.660156 18.570312 26.914062 C 18.574219 26.863281 18.578125 26.8125 18.578125 26.757812 C 18.578125 29.808594 17.34375 32.320312 14.65625 32.71875 C 15.09375 32.757812 15.535156 32.78125 15.980469 32.78125 C 24.710938 32.78125 31.789062 25.484375 31.789062 16.480469 Z M 31.789062 16.480469 "/>
<path style=" stroke:none;fill-rule:nonzero;fill:rgb(10.588235%,52.54902%,73.72549%);fill-opacity:1;" d="M 14.671875 32.722656 C 17.476562 32.332031 19.648438 29.894531 19.722656 26.914062 C 19.640625 23.660156 17.066406 21.046875 13.890625 21.046875 L 13.628906 21.046875 C 8.257812 21.046875 3.460938 18.511719 0.289062 14.546875 C 0.21875 15.183594 0.175781 15.828125 0.175781 16.480469 C 0.175781 25.027344 6.554688 32.035156 14.671875 32.722656 Z M 14.671875 32.722656 "/>
<path style=" stroke:none;fill-rule:nonzero;fill:rgb(98.823529%,99.215686%,100%);fill-opacity:1;" d="M 12.949219 19.371094 L 19.71875 24.527344 C 20.492188 24.96875 21.050781 24.738281 21.242188 23.789062 L 23.996094 10.398438 C 24.28125 9.234375 23.566406 8.703125 22.828125 9.050781 L 6.648438 15.484375 C 5.542969 15.9375 5.550781 16.574219 6.449219 16.859375 L 10.597656 18.195312 L 20.210938 11.941406 C 20.664062 11.65625 21.082031 11.808594 20.738281 12.121094 Z M 12.949219 19.371094 "/>
</g>
</svg>
