<?xml version="1.0" encoding="UTF-8"?>
<svg xmlns="http://www.w3.org/2000/svg" xmlns:xlink="http://www.w3.org/1999/xlink" width="32px" height="33px" viewBox="0 0 32 33" version="1.1">
<g id="surface1">
<path style=" stroke:none;fill-rule:nonzero;fill:rgb(16.470588%,70.980392%,25.098039%);fill-opacity:1;" d="M 31.789062 16.480469 C 31.789062 25.484375 24.710938 32.78125 15.980469 32.78125 C 7.253906 32.78125 0.175781 25.484375 0.175781 16.480469 C 0.175781 7.480469 7.253906 0.179688 15.980469 0.179688 C 24.710938 0.179688 31.789062 7.480469 31.789062 16.480469 Z M 31.789062 16.480469 "/>
<path style=" stroke:none;fill-rule:nonzero;fill:rgb(100%,100%,100%);fill-opacity:1;" d="M 5.84375 16.386719 C 5.84375 18.234375 6.3125 20.042969 7.203125 21.632812 L 5.757812 27.070312 L 11.15625 25.613281 C 12.644531 26.449219 14.316406 26.890625 16.019531 26.890625 L 16.023438 26.890625 C 21.636719 26.890625 26.203125 22.179688 26.207031 16.394531 C 26.207031 13.589844 25.148438 10.953125 23.226562 8.96875 C 21.304688 6.984375 18.75 5.894531 16.023438 5.890625 C 10.414062 5.890625 5.847656 10.601562 5.84375 16.386719 M 9.058594 21.359375 L 8.855469 21.027344 C 8.007812 19.640625 7.5625 18.035156 7.5625 16.386719 C 7.566406 11.578125 11.359375 7.664062 16.027344 7.664062 C 18.289062 7.664062 20.410156 8.574219 22.011719 10.222656 C 23.605469 11.871094 24.488281 14.0625 24.484375 16.394531 C 24.484375 21.203125 20.6875 25.117188 16.023438 25.117188 L 16.019531 25.117188 C 14.503906 25.117188 13.011719 24.695312 11.714844 23.902344 L 11.40625 23.710938 L 8.203125 24.578125 Z M 16.023438 26.890625 L 16.023438 26.890625 "/>
<path style=" stroke:none;fill-rule:nonzero;fill:rgb(100%,100%,100%);fill-opacity:1;" d="M 13.480469 12 C 13.289062 11.5625 13.089844 11.554688 12.90625 11.546875 C 12.757812 11.539062 12.589844 11.539062 12.421875 11.539062 C 12.25 11.539062 11.976562 11.605469 11.742188 11.867188 C 11.507812 12.128906 10.851562 12.765625 10.851562 14.054688 C 10.851562 15.34375 11.761719 16.59375 11.890625 16.769531 C 12.015625 16.941406 13.648438 19.675781 16.234375 20.726562 C 18.382812 21.601562 18.820312 21.425781 19.289062 21.382812 C 19.753906 21.339844 20.792969 20.75 21.003906 20.136719 C 21.214844 19.523438 21.214844 19 21.152344 18.890625 C 21.089844 18.78125 20.921875 18.714844 20.664062 18.582031 C 20.410156 18.453125 19.160156 17.816406 18.925781 17.730469 C 18.695312 17.644531 18.523438 17.597656 18.355469 17.863281 C 18.183594 18.125 17.699219 18.714844 17.550781 18.890625 C 17.402344 19.066406 17.253906 19.085938 17 18.957031 C 16.746094 18.824219 15.925781 18.546875 14.953125 17.652344 C 14.195312 16.957031 13.6875 16.101562 13.539062 15.835938 C 13.390625 15.574219 13.523438 15.433594 13.648438 15.300781 C 13.765625 15.183594 13.902344 14.996094 14.03125 14.84375 C 14.160156 14.691406 14.199219 14.582031 14.285156 14.40625 C 14.371094 14.230469 14.328125 14.078125 14.265625 13.945312 C 14.199219 13.8125 13.707031 12.515625 13.480469 12 "/>
</g>
</svg>
