<?xml version="1.0" encoding="UTF-8"?>
<svg xmlns="http://www.w3.org/2000/svg" xmlns:xlink="http://www.w3.org/1999/xlink" width="32px" height="33px" viewBox="0 0 32 33" version="1.1">
<g id="surface1">
<path style=" stroke:none;fill-rule:nonzero;fill:rgb(0%,81.960784%,66.27451%);fill-opacity:1;" d="M 31.789062 16.480469 C 31.789062 25.484375 24.710938 32.78125 15.980469 32.78125 C 7.253906 32.78125 0.175781 25.484375 0.175781 16.480469 C 0.175781 7.480469 7.253906 0.179688 15.980469 0.179688 C 24.710938 0.179688 31.789062 7.480469 31.789062 16.480469 Z M 31.789062 16.480469 "/>
<path style=" stroke:none;fill-rule:nonzero;fill:rgb(100%,100%,100%);fill-opacity:1;" d="M 24.59375 16.492188 L 16.386719 8.03125 C 16.164062 7.800781 15.800781 7.800781 15.574219 8.03125 L 7.371094 16.492188 C 7.007812 16.867188 7.265625 17.503906 7.777344 17.503906 L 9.011719 17.503906 C 9.328125 17.503906 9.585938 17.769531 9.585938 18.097656 L 9.585938 24.511719 C 9.585938 24.839844 9.84375 25.105469 10.160156 25.105469 L 21.800781 25.105469 C 22.121094 25.105469 22.378906 24.839844 22.378906 24.511719 L 22.378906 18.097656 C 22.378906 17.769531 22.632812 17.503906 22.953125 17.503906 L 24.1875 17.503906 C 24.699219 17.503906 24.957031 16.867188 24.59375 16.492188 Z M 24.59375 16.492188 "/>
</g>
</svg>
